<?xml version="1.0" encoding="UTF-8"?>
<svg xmlns="http://www.w3.org/2000/svg" width="237" height="55" viewBox="0 0 237 55" fill="none">
  <path d="M29.2835 50.3001L26.9584 52.6201L29.2872 54.9438L31.6123 52.6238L29.2835 50.3001Z" fill="#0C999D"></path>
  <path d="M25.3389 50.6909L27.6533 48.3764L26.7003 47.4256L4.68274 25.4567L27.8208 2.34891L25.5117 0.0449219L0.0540771 25.4567L24.386 49.7348L25.3337 50.6909H25.3389Z" fill="#0C999D"></path>
  <path d="M32.9574 5.17529L49.1054 21.3502L46.7806 23.6438L30.6588 7.49495L32.9574 5.17529Z" fill="#31BAA2"></path>
  <path d="M64.9235 6.70125L47.3251 24.2346L45.0265 21.9149L62.5987 4.40771L64.9235 6.70125Z" fill="#31BAA2"></path>
  <path d="M30.3236 42.7445L12.7043 25.2582L15.0187 22.949L15.0396 22.9699L29.1769 8.88477L31.4756 11.2044L17.3644 25.2635L15.1601 23.0901L32.6275 40.4301L30.3236 42.7445Z" fill="#EE5283"></path>
  <path d="M81.6473 45.5085L65.4994 29.3336L67.8242 27.04L83.946 43.1889L81.6473 45.5085Z" fill="#31BAA2"></path>
  <path d="M49.6813 43.9778L67.2796 26.4497L69.5782 28.7694L52.0061 46.2766L49.6813 43.9778Z" fill="#31BAA2"></path>
  <path d="M83.8936 7.41699L101.9 25.4257L99.586 27.7349L99.565 27.714L85.4277 41.7992L83.1291 39.4795L97.2402 25.4153L99.4446 27.5939L81.5845 9.73143L83.8936 7.41699Z" fill="#EE5283"></path>
  <path d="M83.3212 50.2982L80.9961 52.6182L83.3249 54.9418L85.6501 52.6219L83.3212 50.2982Z" fill="#0C999D"></path>
  <path d="M87.2708 0.912598L84.9513 3.22704L85.9042 4.17789L107.927 26.1468L84.7889 49.2546L87.0928 51.5585L112.556 26.1468L88.2186 1.86868L87.2708 0.912598Z" fill="#0C999D"></path>
  <path d="M81.2337 3.20584L78.9298 0.901855L53.6502 26.1151L53.6764 26.1412L31.3708 48.3974L33.6799 50.7014L58.9596 25.4882L58.9334 25.4621L81.2337 3.20584Z" fill="#0C999D"></path>
  <path d="M124.227 3.22168H127.452V19.3235H124.227V3.22168Z" fill="#0C999D"></path>
  <path d="M130.651 3.22168H146.789V19.3235H143.558V6.43995H133.877V19.3235H130.651V3.22168Z" fill="#0C999D"></path>
  <path d="M149.983 3.22168H166.115V6.43995H153.208V9.66344H159.664V12.8817H153.208V19.3235H149.983V3.22168Z" fill="#0C999D"></path>
  <path d="M169.314 3.22168H172.54V19.3235H169.314V3.22168Z" fill="#0C999D"></path>
  <path d="M175.739 3.22168H191.877V19.3235H188.63V6.43995H178.965V19.3235H175.739V3.22168Z" fill="#0C999D"></path>
  <path d="M195.071 3.22168H198.296V19.3235H195.071V3.22168Z" fill="#0C999D"></path>
  <path d="M201.495 3.22168H217.633V6.43995H211.177V19.3235H207.951V6.43995H201.495V3.22168Z" fill="#0C999D"></path>
  <path d="M222.947 3.2687L228.911 9.21936L234.812 3.22168L236.964 5.35848L230.519 11.8107V19.3548H227.293V11.8107L220.827 5.35848L222.947 3.2687Z" fill="#0C999D"></path>
  <path d="M129.646 30.4358L128.568 31.3866C128.335 31.219 128.092 31.0671 127.84 30.9321C127.614 30.8273 127.366 30.7754 127.117 30.7806C126.457 30.7806 126.133 31.0209 126.133 31.5068C126.133 31.8516 126.546 32.186 127.379 32.5151C128.049 32.7405 128.663 33.1056 129.18 33.5861C129.543 33.9655 129.741 34.4726 129.73 34.9967C129.731 35.3218 129.661 35.6433 129.525 35.9384C129.388 36.2336 129.188 36.4953 128.939 36.7051C128.435 37.1727 127.769 37.4289 127.081 37.4209C126.544 37.4187 126.016 37.2792 125.549 37.0158C125.081 36.7524 124.689 36.3738 124.41 35.9163L125.683 35.305C125.861 35.4999 126.076 35.6575 126.316 35.7687C126.556 35.8799 126.816 35.9425 127.081 35.9528C127.394 35.96 127.701 35.8646 127.955 35.6811C128.066 35.6145 128.158 35.5213 128.224 35.41C128.29 35.2988 128.327 35.1729 128.332 35.0438C128.332 34.6206 127.892 34.234 127.012 33.8944C126.339 33.6732 125.717 33.3177 125.185 32.8495C125.016 32.6793 124.882 32.477 124.792 32.2545C124.702 32.032 124.658 31.7937 124.661 31.5538C124.658 31.256 124.721 30.9612 124.845 30.6903C124.969 30.4194 125.151 30.1791 125.379 29.9865C125.879 29.5558 126.525 29.33 127.185 29.3543C128.106 29.4207 128.976 29.8028 129.646 30.4358Z" fill="#EE5183"></path>
  <path d="M130.929 33.3354C130.932 32.8102 131.044 32.2914 131.258 31.8114C131.472 31.3313 131.782 30.9004 132.17 30.5455C132.537 30.1607 132.979 29.8544 133.469 29.6451C133.959 29.4359 134.486 29.328 135.018 29.3282C135.556 29.3246 136.089 29.4291 136.586 29.6356C137.083 29.842 137.532 30.1462 137.909 30.5298C138.299 30.8862 138.61 31.3197 138.823 31.8027C139.035 32.2858 139.145 32.8078 139.144 33.3354C139.145 33.8665 139.038 34.3922 138.829 34.8808C138.62 35.3693 138.314 35.8105 137.93 36.1775C137.573 36.5641 137.14 36.8728 136.658 37.0841C136.176 37.2954 135.655 37.4048 135.128 37.4052C134.579 37.4099 134.035 37.3046 133.528 37.0955C133.021 36.8863 132.561 36.5777 132.175 36.1879C131.78 35.8249 131.465 35.3838 131.251 34.8927C131.036 34.4015 130.927 33.8712 130.929 33.3354ZM137.584 33.3354C137.584 33.0173 137.518 32.7025 137.39 32.4112C137.262 32.1198 137.075 31.8581 136.84 31.6426C136.609 31.4103 136.333 31.2267 136.029 31.1029C135.725 30.979 135.399 30.9174 135.071 30.9217C134.736 30.918 134.404 30.9808 134.094 31.1063C133.784 31.2319 133.502 31.4178 133.264 31.6531C133.023 31.8743 132.831 32.1434 132.7 32.443C132.57 32.7425 132.503 33.0661 132.505 33.3928C132.506 33.7132 132.575 34.0298 132.708 34.3215C132.841 34.6133 133.034 34.8737 133.275 35.0856C133.754 35.5545 134.399 35.8155 135.071 35.8118C135.399 35.8127 135.725 35.747 136.027 35.6186C136.33 35.4902 136.603 35.3017 136.83 35.0647C137.068 34.8438 137.258 34.5761 137.388 34.2786C137.518 33.981 137.584 33.6599 137.584 33.3354Z" fill="#EE5183"></path>
  <path d="M145.501 25.2741V26.9041C145.15 26.6343 144.728 26.471 144.286 26.4339C144.157 26.4281 144.029 26.4535 143.912 26.5082C143.796 26.5628 143.694 26.6448 143.616 26.7474C143.44 27.0052 143.356 27.3139 143.375 27.6251V29.5372H145.501V31.0157H143.375V37.1911H141.757V31.0157H140.343V29.5372H141.757V27.7348C141.717 26.979 141.958 26.235 142.433 25.645C142.654 25.3887 142.93 25.1856 143.241 25.0508C143.552 24.916 143.89 24.853 144.229 24.8665C144.68 24.893 145.118 25.0332 145.501 25.2741Z" fill="#EE5183"></path>
  <path d="M147.731 27.3013H149.36V29.5269H150.931V31.0054H149.36V37.1807H147.742V31.0159H146.47V29.5217H147.742L147.731 27.3013Z" fill="#EE5183"></path>
  <path d="M162.256 30.436L161.178 31.3869C160.946 31.2192 160.702 31.0674 160.45 30.9324C160.224 30.8275 159.977 30.7757 159.727 30.7808C159.068 30.7808 158.738 31.0212 158.738 31.507C158.738 31.8519 159.157 32.1862 159.989 32.5154C160.659 32.7408 161.273 33.1059 161.79 33.5864C162.153 33.9657 162.351 34.4728 162.34 34.997C162.338 35.3177 162.266 35.634 162.129 35.9244C161.993 36.2147 161.795 36.4722 161.549 36.6793C161.045 37.1468 160.379 37.403 159.691 37.395C159.154 37.3928 158.626 37.2533 158.159 36.9899C157.691 36.7265 157.299 36.3479 157.02 35.8904L158.293 35.2791C158.471 35.4744 158.686 35.6324 158.926 35.7436C159.166 35.8548 159.426 35.9172 159.691 35.9269C160.004 35.9334 160.311 35.838 160.565 35.6553C160.676 35.5886 160.769 35.4954 160.834 35.3841C160.9 35.2729 160.937 35.147 160.942 35.0179C160.942 34.5947 160.502 34.2081 159.623 33.8685C158.949 33.6473 158.327 33.2918 157.795 32.8236C157.626 32.6533 157.492 32.4509 157.402 32.2285C157.313 32.006 157.268 31.7678 157.272 31.5279C157.269 31.2298 157.333 30.9348 157.458 30.664C157.583 30.3931 157.766 30.153 157.994 29.9606C158.495 29.5299 159.14 29.3041 159.801 29.3284C160.723 29.4031 161.591 29.7946 162.256 30.436Z" fill="#31BAA2"></path>
  <path d="M163.497 29.5371H165.33L168.115 33.7167L170.037 29.5371H171.707L166.524 40.7802H164.838L167.367 35.3101L163.497 29.5371Z" fill="#31BAA2"></path>
  <path d="M178.111 30.436L177.032 31.3869C176.803 31.2182 176.561 31.0663 176.31 30.9324C176.082 30.8269 175.833 30.775 175.582 30.7808C174.928 30.7808 174.598 31.0212 174.598 31.507C174.598 31.8519 175.017 32.1862 175.849 32.5154C176.518 32.7394 177.131 33.1047 177.645 33.5864C178.008 33.9657 178.205 34.4728 178.195 34.997C178.194 35.3179 178.122 35.6347 177.986 35.9253C177.849 36.2159 177.651 36.4732 177.404 36.6793C176.9 37.1472 176.234 37.4036 175.545 37.395C175.009 37.3919 174.483 37.252 174.017 36.9886C173.55 36.7253 173.159 36.3472 172.88 35.8904L174.153 35.2791C174.33 35.4738 174.545 35.6314 174.784 35.7426C175.023 35.8538 175.282 35.9165 175.545 35.9269C175.86 35.9341 176.169 35.8388 176.425 35.6553C176.536 35.5886 176.628 35.4954 176.694 35.3841C176.76 35.2729 176.797 35.147 176.802 35.0179C176.802 34.5947 176.362 34.2081 175.483 33.8685C174.808 33.6481 174.187 33.2925 173.655 32.8236C173.485 32.654 173.351 32.4518 173.261 32.2291C173.171 32.0065 173.127 31.768 173.132 31.5279C173.129 31.2298 173.193 30.9348 173.318 30.664C173.443 30.3931 173.626 30.153 173.854 29.9606C174.355 29.5299 175 29.3041 175.661 29.3284C176.582 29.4022 177.448 29.7938 178.111 30.436Z" fill="#31BAA2"></path>
  <path d="M180.342 27.3013H181.96V29.5269H183.562V31.0054H181.96V37.1807H180.342V31.0159H179.069V29.5217H180.342V27.3013Z" fill="#31BAA2"></path>
  <path d="M192.641 33.6748H186.096C186.136 34.0122 186.242 34.3384 186.41 34.6343C186.577 34.9303 186.801 35.1902 187.07 35.3989C187.549 35.7447 188.128 35.9278 188.719 35.9213C189.166 35.925 189.607 35.8238 190.007 35.626C190.408 35.4281 190.755 35.1392 191.023 34.7824L192.206 35.6758C191.794 36.2255 191.256 36.6681 190.636 36.9664C190.016 37.2646 189.334 37.4097 188.646 37.3894C188.114 37.4018 187.584 37.3043 187.091 37.1029C186.598 36.9015 186.153 36.6006 185.782 36.2191C185.403 35.8388 185.106 35.3857 184.908 34.8873C184.71 34.3888 184.615 33.8555 184.63 33.3196C184.624 32.7959 184.725 32.2764 184.925 31.7924C185.126 31.3085 185.423 30.8701 185.798 30.5036C186.167 30.1242 186.608 29.8227 187.096 29.6167C187.584 29.4108 188.108 29.3047 188.638 29.3047C189.168 29.3047 189.692 29.4108 190.18 29.6167C190.668 29.8227 191.11 30.1242 191.479 30.5036C191.878 30.9255 192.188 31.4243 192.388 31.9696C192.587 32.5149 192.674 33.0951 192.641 33.6748ZM186.264 32.3896H190.95C190.769 31.9273 190.452 31.5304 190.041 31.2508C189.63 30.9711 189.143 30.8218 188.646 30.8223C188.134 30.8018 187.629 30.942 187.202 31.2232C186.774 31.5044 186.446 31.9124 186.264 32.3896Z" fill="#31BAA2"></path>
  <path d="M194.353 37.191V29.5371H195.961V30.7178C196.262 30.3125 196.628 29.9595 197.044 29.673C197.397 29.4459 197.809 29.3294 198.228 29.3386C198.714 29.3108 199.196 29.443 199.6 29.7148C199.982 30.0408 200.272 30.4603 200.443 30.9321C200.761 30.4638 201.155 30.0523 201.61 29.7148C202.001 29.4605 202.459 29.3294 202.925 29.3386C203.22 29.335 203.512 29.3937 203.783 29.5107C204.053 29.6278 204.296 29.8006 204.495 30.0178C204.709 30.2298 204.878 30.4823 204.992 30.7605C205.106 31.0386 205.163 31.3368 205.16 31.6374V37.2014H203.542V32.0553C203.568 31.8837 203.552 31.7086 203.498 31.5438C203.444 31.3791 203.352 31.2292 203.229 31.106C203.107 30.9829 202.957 30.8898 202.793 30.8342C202.628 30.7786 202.453 30.7621 202.281 30.7858C202.041 30.7876 201.805 30.8475 201.593 30.9603C201.382 31.0731 201.201 31.2356 201.066 31.4336C200.723 31.8967 200.547 32.4621 200.568 33.0375V37.2171H198.945V32.2852C198.945 31.2821 198.532 30.7805 197.709 30.7805C197.469 30.7803 197.231 30.8353 197.015 30.9413C196.799 31.0473 196.61 31.2014 196.463 31.3918C196.112 31.8176 195.926 32.3555 195.94 32.9069V37.2171L194.353 37.191Z" fill="#31BAA2"></path>
  <path d="M211.826 30.4358L210.747 31.3866C210.518 31.218 210.276 31.0661 210.025 30.9321C209.797 30.8266 209.548 30.7748 209.297 30.7806C208.642 30.7806 208.312 31.0209 208.312 31.5068C208.312 31.8516 208.731 32.186 209.564 32.5151C210.234 32.7405 210.848 33.1056 211.365 33.5861C211.716 33.9708 211.904 34.4766 211.889 34.9967C211.897 35.3184 211.835 35.638 211.707 35.9331C211.578 36.2283 211.387 36.4918 211.145 36.7051C210.641 37.1731 209.975 37.4294 209.286 37.4209C208.75 37.4178 208.224 37.2779 207.758 37.0145C207.291 36.7511 206.9 36.3731 206.621 35.9163L207.894 35.305C208.071 35.4997 208.286 35.6573 208.525 35.7685C208.764 35.8797 209.023 35.9424 209.286 35.9528C209.601 35.96 209.91 35.8646 210.166 35.6811C210.277 35.6145 210.369 35.5213 210.435 35.41C210.501 35.2988 210.538 35.1729 210.543 35.0438C210.543 34.6206 210.103 34.234 209.224 33.8944C208.55 33.6732 207.928 33.3177 207.396 32.8495C207.227 32.6792 207.093 32.4768 207.003 32.2543C206.914 32.0318 206.869 31.7937 206.873 31.5538C206.87 31.2557 206.934 30.9607 207.059 30.6899C207.184 30.419 207.367 30.1789 207.595 29.9865C208.096 29.5558 208.741 29.33 209.402 29.3543C210.31 29.4268 211.166 29.8086 211.826 30.4358Z" fill="#31BAA2"></path>
  <path d="M126.112 46.3154V48.3804H129.624V49.5459H126.112V51.6579H130.159V52.8233H124.902V45.1499H130.034V46.3154H126.112Z" fill="white"></path>
  <path d="M134.785 46.9878H136.083L134.323 49.8272L136.2 52.823H134.844L133.546 50.6798L132.146 52.823H130.834L132.762 49.8272L130.966 46.9878H132.322L133.546 48.9824L134.785 46.9878Z" fill="white"></path>
  <path d="M141.486 47.9029L140.841 48.6851C140.638 48.466 140.394 48.2944 140.125 48.1813C139.856 48.0681 139.568 48.016 139.279 48.0281C138.835 48.0588 138.419 48.2687 138.114 48.6152C137.81 48.9616 137.64 49.4187 137.64 49.8936C137.64 50.3685 137.81 50.8256 138.114 51.1721C138.419 51.5186 138.835 51.7285 139.279 51.7592C139.58 51.7769 139.881 51.7229 140.16 51.6012C140.439 51.4794 140.689 51.2929 140.892 51.0552L141.552 51.7592C141.272 52.1219 140.915 52.4088 140.511 52.5964C140.108 52.784 139.668 52.867 139.228 52.8386C138.493 52.8386 137.788 52.5271 137.268 51.9726C136.749 51.4181 136.457 50.6661 136.457 49.8819C136.457 49.0977 136.749 48.3457 137.268 47.7912C137.788 47.2367 138.493 46.9252 139.228 46.9252C139.649 46.9 140.069 46.9747 140.46 47.1438C140.85 47.3128 141.201 47.5721 141.486 47.9029Z" fill="white"></path>
  <path d="M147.373 50.3909H143.238C143.312 50.8097 143.525 51.1863 143.837 51.453C144.148 51.7197 144.539 51.859 144.938 51.8458C145.225 51.8484 145.509 51.7895 145.773 51.6726C146.038 51.5557 146.277 51.3832 146.478 51.1653L147.101 51.8771C146.813 52.2047 146.462 52.4623 146.073 52.6323C145.683 52.8024 145.264 52.881 144.843 52.8627C144.108 52.8627 143.403 52.5512 142.884 51.9967C142.364 51.4422 142.072 50.6901 142.072 49.906C142.072 49.1218 142.364 48.3697 142.884 47.8152C143.403 47.2607 144.108 46.9492 144.843 46.9492C146.735 46.9492 147.512 48.2868 147.373 50.3909ZM146.339 49.4679C146.343 49.2591 146.305 49.0517 146.229 48.8593C146.153 48.667 146.039 48.4939 145.896 48.3515C145.753 48.209 145.583 48.1004 145.398 48.0326C145.213 47.9649 145.016 47.9395 144.821 47.9583C144.424 47.9427 144.036 48.0908 143.739 48.3718C143.441 48.6529 143.257 49.0454 143.223 49.4679H146.339Z" fill="white"></path>
  <path d="M148.649 52.8229V44.688H149.829V52.8229H148.649Z" fill="white"></path>
  <path d="M151.677 52.8229V44.688H152.857V52.8229H151.677Z" fill="white"></path>
  <path d="M159.463 50.3909H155.335C155.407 50.8098 155.618 51.1872 155.928 51.4543C156.239 51.7213 156.63 51.8603 157.029 51.8458C157.315 51.8484 157.599 51.7895 157.863 51.6726C158.128 51.5557 158.368 51.3832 158.568 51.1653L159.191 51.8771C158.903 52.2047 158.553 52.4623 158.163 52.6323C157.773 52.8024 157.354 52.881 156.933 52.8627C156.198 52.8627 155.493 52.5512 154.974 51.9967C154.454 51.4422 154.162 50.6901 154.162 49.906C154.162 49.1218 154.454 48.3697 154.974 47.8152C155.493 47.2607 156.198 46.9492 156.933 46.9492C158.825 46.9492 159.602 48.2868 159.463 50.3909ZM158.436 49.4679C158.438 49.2591 158.399 49.0521 158.321 48.8603C158.244 48.6685 158.13 48.496 157.986 48.354C157.843 48.2119 157.673 48.1033 157.488 48.0352C157.303 47.967 157.106 47.9409 156.911 47.9583C156.515 47.9446 156.128 48.0934 155.831 48.3741C155.534 48.6548 155.348 49.0461 155.313 49.4679H158.436Z" fill="white"></path>
  <path d="M165.914 49.1623V52.7917H164.734V49.5143C164.75 49.3253 164.728 49.1347 164.668 48.9559C164.608 48.7771 164.512 48.6145 164.387 48.4795C164.262 48.3445 164.111 48.2404 163.944 48.1746C163.777 48.1088 163.599 48.0828 163.421 48.0985C163.023 48.094 162.638 48.2544 162.348 48.5462C162.058 48.8379 161.886 49.2382 161.867 49.6629V52.7917H160.687V46.9565H161.867V48.075C162.06 47.693 162.354 47.3797 162.713 47.174C163.071 46.9682 163.478 46.879 163.883 46.9174C164.161 46.8962 164.44 46.9405 164.701 47.0469C164.961 47.1534 165.196 47.3195 165.39 47.5336C165.584 47.7477 165.731 48.0045 165.822 48.2859C165.912 48.5673 165.944 48.8665 165.914 49.1623Z" fill="white"></path>
  <path d="M171.992 47.9033L171.347 48.6855C171.144 48.4664 170.9 48.2948 170.631 48.1817C170.362 48.0686 170.074 48.0164 169.785 48.0285C169.341 48.0592 168.924 48.2691 168.62 48.6156C168.316 48.9621 168.146 49.4192 168.146 49.894C168.146 50.3689 168.316 50.826 168.62 51.1725C168.924 51.519 169.341 51.7289 169.785 51.7596C170.086 51.7768 170.387 51.7225 170.666 51.6008C170.945 51.4791 171.195 51.2929 171.398 51.0556L172.051 51.7596C171.772 52.1222 171.417 52.4091 171.014 52.5967C170.611 52.7844 170.173 52.8674 169.734 52.8391C168.999 52.8391 168.294 52.5275 167.774 51.973C167.255 51.4186 166.963 50.6665 166.963 49.8823C166.963 49.0981 167.255 48.3461 167.774 47.7916C168.294 47.2371 168.999 46.9256 169.734 46.9256C170.154 46.9021 170.575 46.9775 170.965 47.1465C171.355 47.3154 171.706 47.5738 171.992 47.9033Z" fill="white"></path>
  <path d="M177.872 50.3909H173.744C173.817 50.8091 174.028 51.1855 174.339 51.4523C174.649 51.7191 175.039 51.8587 175.438 51.8458C175.724 51.8502 176.009 51.7921 176.273 51.6751C176.538 51.5581 176.778 51.3846 176.977 51.1653L177.608 51.8771C177.32 52.2047 176.969 52.4623 176.579 52.6323C176.19 52.8024 175.77 52.881 175.35 52.8627C174.986 52.8653 174.625 52.7913 174.288 52.6451C173.951 52.4989 173.644 52.2833 173.385 52.0105C172.862 51.4597 172.565 50.7097 172.56 49.9255C172.555 49.1413 172.843 48.3872 173.359 47.8291C173.875 47.2709 174.578 46.9544 175.313 46.9492C177.234 46.9492 178.018 48.2868 177.872 50.3909ZM176.845 49.4679C176.849 49.2591 176.812 49.0517 176.735 48.8593C176.659 48.667 176.546 48.4939 176.403 48.3515C176.259 48.209 176.09 48.1004 175.904 48.0326C175.719 47.9649 175.523 47.9395 175.328 47.9583C174.93 47.9445 174.543 48.093 174.244 48.3735C173.946 48.654 173.759 49.0455 173.722 49.4679H176.845Z" fill="white"></path>
  <path d="M184.844 52.4478C184.439 52.7185 183.973 52.8672 183.495 52.878C183.286 52.8878 183.077 52.8498 182.883 52.7665C182.689 52.6832 182.514 52.5566 182.369 52.395C182.225 52.2335 182.115 52.0409 182.046 51.83C181.977 51.6192 181.951 51.3951 181.97 51.1728V48.1535H181.193V47.207H181.97V45.6426H183.136V47.207H184.749V48.1535H183.136V50.9459C183.136 51.5482 183.356 51.7281 183.722 51.7281C184.01 51.7131 184.291 51.6275 184.543 51.4778L184.844 52.4478Z" fill="white"></path>
  <path d="M191.054 49.9445C191.07 50.55 190.916 51.1468 190.613 51.6586C190.309 52.1703 189.869 52.5737 189.349 52.817C188.829 53.0603 188.253 53.1325 187.694 53.0244C187.136 52.9163 186.62 52.6327 186.213 52.21C185.807 51.7873 185.527 51.2447 185.412 50.6517C185.296 50.0587 185.348 49.4423 185.563 48.8814C185.777 48.3205 186.143 47.8407 186.615 47.5033C187.087 47.1659 187.642 46.9864 188.21 46.9877C188.583 46.9623 188.957 47.0207 189.308 47.1592C189.659 47.2978 189.979 47.5133 190.247 47.792C190.515 48.0706 190.726 48.4062 190.865 48.7769C191.004 49.1477 191.068 49.5454 191.054 49.9445ZM186.531 49.9445C186.549 50.2918 186.663 50.6258 186.857 50.9053C187.051 51.1847 187.318 51.3974 187.624 51.5172C187.93 51.637 188.263 51.6586 188.58 51.5793C188.898 51.5001 189.187 51.3235 189.411 51.0712C189.636 50.819 189.786 50.5022 189.844 50.1598C189.902 49.8174 189.865 49.4644 189.738 49.1442C189.61 48.8241 189.397 48.5508 189.126 48.358C188.854 48.1653 188.536 48.0614 188.21 48.0594C187.98 48.0544 187.752 48.1005 187.541 48.1947C187.329 48.2889 187.138 48.4292 186.98 48.6066C186.822 48.784 186.701 48.9946 186.623 49.225C186.546 49.4553 186.514 49.7004 186.531 49.9445Z" fill="white"></path>
  <path d="M197.072 53.6209C196.974 53.9358 196.804 54.2199 196.578 54.448C196.352 54.6762 196.077 54.8413 195.776 54.9287C195.476 55.0161 195.16 55.0232 194.857 54.9492C194.554 54.8753 194.272 54.7226 194.037 54.5048L194.536 53.5348C194.742 53.7162 195.001 53.8157 195.269 53.8164C195.454 53.8127 195.633 53.7484 195.783 53.6323C195.932 53.5162 196.045 53.3538 196.105 53.1672L196.288 52.7292L194.03 46.9878H195.247L196.882 51.4072L198.399 46.9878H199.58L197.072 53.6209Z" fill="white"></path>
  <path d="M205.335 49.9445C205.351 50.55 205.197 51.1468 204.893 51.6586C204.59 52.1703 204.15 52.5737 203.63 52.817C203.11 53.0603 202.534 53.1325 201.975 53.0244C201.416 52.9163 200.901 52.6327 200.494 52.21C200.087 51.7873 199.808 51.2447 199.692 50.6517C199.576 50.0587 199.629 49.4423 199.843 48.8814C200.058 48.3205 200.424 47.8407 200.896 47.5033C201.367 47.1659 201.923 46.9864 202.49 46.9877C202.864 46.9623 203.238 47.0207 203.589 47.1592C203.94 47.2978 204.26 47.5133 204.528 47.792C204.796 48.0706 205.007 48.4062 205.146 48.7769C205.284 49.1477 205.349 49.5454 205.335 49.9445ZM200.819 49.9445C200.837 50.2922 200.951 50.6265 201.146 50.9061C201.34 51.1857 201.607 51.3984 201.914 51.5179C202.221 51.6374 202.553 51.6586 202.871 51.5787C203.189 51.4988 203.478 51.3214 203.702 51.0684C203.926 50.8154 204.076 50.4979 204.133 50.155C204.191 49.8121 204.152 49.4589 204.023 49.1389C203.895 48.8189 203.681 48.5461 203.408 48.3543C203.136 48.1624 202.817 48.0599 202.49 48.0594C202.263 48.0587 202.039 48.1081 201.831 48.2042C201.623 48.3004 201.435 48.4413 201.28 48.6183C201.126 48.7952 201.007 49.0043 200.931 49.2325C200.855 49.4607 200.825 49.703 200.841 49.9445H200.819Z" fill="white"></path>
  <path d="M211.552 52.823H210.372V51.681C210.192 52.0631 209.91 52.3795 209.562 52.5898C209.213 52.8002 208.814 52.895 208.414 52.8622C208.138 52.8799 207.862 52.8331 207.604 52.7249C207.347 52.6168 207.115 52.45 206.924 52.2362C206.734 52.0224 206.589 51.7667 206.501 51.4871C206.412 51.2074 206.382 50.9105 206.413 50.6172V46.9878H207.593V50.2652C207.575 50.4513 207.594 50.6395 207.651 50.8165C207.708 50.9935 207.8 51.1552 207.922 51.2901C208.043 51.425 208.191 51.5299 208.355 51.5974C208.518 51.665 208.694 51.6935 208.869 51.681C209.083 51.6758 209.293 51.6233 209.487 51.527C209.68 51.4306 209.853 51.2925 209.995 51.1212C210.136 50.95 210.242 50.7493 210.307 50.532C210.372 50.3147 210.394 50.0853 210.372 49.8585V46.9878H211.552V52.823Z" fill="white"></path>
</svg>
